# xmcd
#
# Track frame offsets: 
#        150
#        12386
#        28096
#        39902
#        50712
#        61214
#        70705
#        82064
#        88955
#        99584
#        109578
#        119205
#        126402
#        133870
#        140558
#        154694
#        166730
#        176011
#        193178
#        205972
#        217856
#        228236
#        242329
#        258077
#
# Disc length: 3623 seconds
#
# Revision: 0
# Processed by: cddbd v1.5.1PL2 Copyright (c) Steve Scherf et al.
# Submitted via: ExactAudioCopy v0.95b3
#
DISCID=580e2518
DTITLE=Jewell (Robinson) Kidwell - Jewell (Robinson) Kidwell, 1940-197
DTITLE=9, Disc 2 of 2
DYEAR=1977
DGENRE=Gospel
TTITLE0=Since Jesus Passed By
TTITLE1=In That Great Beyond
TTITLE2=I Want To See Jesus
TTITLE3=Put On My Robe and Crown
TTITLE4=Jesus Will Outshine Them All
TTITLE5=My Jesus, My Jesus
TTITLE6=Dark River
TTITLE7=Sea Walker
TTITLE8=Thirty Minutes Of Silence
TTITLE9=This Is My Valley
TTITLE10=Love Will Roll The Clouds Away
TTITLE11=Walk Right Out Of This Valley
TTITLE12=A Never Failing God
TTITLE13=I Never Knew Love
TTITLE14=Don't Put Off 'Til Tomorrow (Written By: Betty Robinson)
TTITLE15=Jesus Use Me
TTITLE16=I'm One Of His Own
TTITLE17=Scars In The Hands Of Jesus
TTITLE18=Another Sunrise
TTITLE19=He's The Potter
TTITLE20=Jerusalem, Jerusalem
TTITLE21=I Believe Jesus
TTITLE22=My Becoming One
TTITLE23=Wait For Me At Jesus Feet
EXTD=
EXTT0=
EXTT1=
EXTT2=
EXTT3=
EXTT4=
EXTT5=
EXTT6=
EXTT7=
EXTT8=
EXTT9=
EXTT10=
EXTT11=
EXTT12=
EXTT13=
EXTT14=
EXTT15=
EXTT16=
EXTT17=
EXTT18=
EXTT19=
EXTT20=
EXTT21=
EXTT22=
EXTT23=
PLAYORDER=
